<?xml version="1.0" encoding="UTF-8"?>
<svg width="749px" height="88px" viewBox="0 0 749 88" version="1.1" xmlns="http://www.w3.org/2000/svg" xmlns:xlink="http://www.w3.org/1999/xlink">
    <!-- Generator: Sketch 52.4 (67378) - http://www.bohemiancoding.com/sketch -->
    <title>pattern</title>
    <desc>Created with Sketch.</desc>
    <g id="r" stroke="none" stroke-width="1" fill="none" fill-rule="evenodd">
        <g id="3_people_01-copy" transform="translate(-23.000000, 0.000000)" stroke="#FFFFFF" stroke-width="0.72">
            <g id="pattern" transform="translate(22.000000, -6.000000)">
                <polygon id="Polygon" fill="#FC5B5D" transform="translate(444.764738, 37.549650) rotate(-352.000000) translate(-444.764738, -37.549650) " points="444.760485 32.6671661 449.899941 36.4015238 447.945349 42.4321348 441.597889 42.4248996 439.629535 36.3898171"></polygon>
                <polygon id="Polygon-Copy-4" fill="#FCD540" transform="translate(105.764738, 5.549650) rotate(-352.000000) translate(-105.764738, -5.549650) " points="105.760485 0.667166097 110.899941 4.4015238 108.945349 10.4321348 102.597889 10.4248996 100.629535 4.38981707"></polygon>
                <polygon id="Polygon-Copy" fill="#FCD540" transform="translate(175.663514, 82.962940) rotate(-675.000000) translate(-175.663514, -82.962940) " points="175.663514 77.5716353 180.803127 81.296935 178.83997 87.3245965 172.487058 87.3245965 170.5239 81.296935"></polygon>
                <polygon id="Polygon-Copy-3" fill="#FC5B5D" transform="translate(169.633510, 54.633510) rotate(-675.000000) translate(-169.633510, -54.633510) " points="169.63351 49.2422061 174.773124 52.9675057 172.809966 58.9951672 166.457054 58.9951672 164.493897 52.9675057"></polygon>
                <polygon id="Polygon-Copy-5" fill="#FC5B5D" transform="translate(143.633510, 25.633510) rotate(-675.000000) translate(-143.633510, -25.633510) " points="143.63351 20.2422061 148.773124 23.9675057 146.809966 29.9951672 140.457054 29.9951672 138.493897 23.9675057"></polygon>
                <polygon id="Polygon-Copy-2" fill="#FC5B5D" transform="translate(302.633510, 33.633510) rotate(-675.000000) translate(-302.633510, -33.633510) " points="302.63351 28.2422061 307.773124 31.9675057 305.809966 37.9951672 299.457054 37.9951672 297.493897 31.9675057"></polygon>
                <polygon id="Star" fill="#536DFE" transform="translate(36.997385, 88.997385) rotate(-315.000000) translate(-36.997385, -88.997385) " points="36.9973845 91.468399 34.0856333 92.99557 34.6417283 89.76097 32.286072 87.4702136 35.5415089 86.9982918 36.9973845 84.0553555 38.4532602 86.9982918 41.708697 87.4702136 39.3530408 89.76097 39.9091358 92.99557"></polygon>
                <polygon id="Star-Copy-3" fill="#536DFE" transform="translate(317.997385, 6.997385) rotate(-315.000000) translate(-317.997385, -6.997385) " points="317.997385 9.46839903 315.085633 10.99557 315.641728 7.76097001 313.286072 5.47021359 316.541509 4.99829182 317.997385 2.05535555 319.45326 4.99829182 322.708697 5.47021359 320.353041 7.76097001 320.909136 10.99557"></polygon>
                <polygon id="Star-Copy-4" fill="#23D57E" transform="translate(193.394862, 19.848413) rotate(-315.000000) translate(-193.394862, -19.848413) " points="193.394862 22.3194271 190.483111 23.846598 191.039206 20.6119981 188.68355 18.3212417 191.938986 17.8493199 193.394862 14.9063836 194.850738 17.8493199 198.106175 18.3212417 195.750518 20.6119981 196.306613 23.846598"></polygon>
                <polygon id="Star-Copy-2" fill="#FCD540" transform="translate(267.882146, 66.533078) rotate(-315.000000) translate(-267.882146, -66.533078) " points="267.882146 69.0040922 264.970395 70.5312632 265.52649 67.2966632 263.170834 65.0059068 266.42627 64.533985 267.882146 61.5910487 269.338022 64.533985 272.593459 65.0059068 270.237802 67.2966632 270.793897 70.5312632"></polygon>
                <polygon id="Star-Copy" fill="#23D57E" transform="translate(131.997385, 64.997385) rotate(-315.000000) translate(-131.997385, -64.997385) " points="131.997385 67.468399 129.085633 68.99557 129.641728 65.76097 127.286072 63.4702136 130.541509 62.9982918 131.997385 60.0553555 133.45326 62.9982918 136.708697 63.4702136 134.353041 65.76097 134.909136 68.99557"></polygon>
                <ellipse id="Oval" fill="#23D57E" transform="translate(253.725133, 24.725133) rotate(-315.000000) translate(-253.725133, -24.725133) " cx="253.725133" cy="24.7251328" rx="4.05308219" ry="4.04347826"></ellipse>
                <ellipse id="Oval-Copy-2" fill="#6B82FF" transform="translate(5.725133, 19.725133) rotate(-315.000000) translate(-5.725133, -19.725133) " cx="5.7251328" cy="19.7251328" rx="4.05308219" ry="4.04347826"></ellipse>
                <ellipse id="Oval-Copy" fill="#23D57E" transform="translate(404.725133, 85.725133) rotate(-315.000000) translate(-404.725133, -85.725133) " cx="404.725133" cy="85.7251328" rx="4.05308219" ry="4.04347826"></ellipse>
                <rect id="Rectangle" fill="#23D57E" transform="translate(59.725133, 30.725133) rotate(-315.000000) translate(-59.725133, -30.725133) " x="56.0320506" y="27.0416545" width="7.38616438" height="7.36695652" rx="0.9"></rect>
                <rect id="Rectangle-Copy-2" fill="#6B82FF" transform="translate(213.833329, 84.916591) rotate(-315.000000) translate(-213.833329, -84.916591) " x="210.140247" y="81.2331123" width="7.38616438" height="7.36695652" rx="0.9"></rect>
                <path d="M300.906719,76.3673597 C300.608985,76.3677128 300.367713,76.6089854 300.36736,76.9067187 L300.360014,83.0993457 C300.360014,83.0999863 300.360014,83.0999863 300.360014,83.1006268 C300.360368,83.3988603 300.602421,83.6403396 300.900654,83.6399859 L307.093281,83.6326403 C307.391015,83.6322872 307.632287,83.3910146 307.63264,83.0932813 L307.639986,76.9006543 C307.639986,76.9000137 307.639986,76.9000137 307.639986,76.8993732 C307.639632,76.6011397 307.397579,76.3596604 307.099346,76.3600141 L300.906719,76.3673597 Z" id="Rectangle-Copy-4" fill="#FCD540" transform="translate(304.000000, 80.000000) rotate(-630.000000) translate(-304.000000, -80.000000) "></path>
                <rect id="Rectangle-Copy" fill="#6B82FF" transform="translate(221.725133, 43.725133) rotate(-315.000000) translate(-221.725133, -43.725133) " x="218.032051" y="40.0416545" width="7.38616438" height="7.36695652" rx="0.9"></rect>
                <polygon id="Polygon" fill="#FC5B5D" transform="translate(582.237063, 73.549650) scale(-1, 1) rotate(-352.000000) translate(-582.237063, -73.549650) " points="582.23281 68.6671661 587.372266 72.4015238 585.417674 78.4321348 579.070214 78.4248996 577.10186 72.3898171"></polygon>
                <polygon id="Polygon-Copy" fill="#FCD540" transform="translate(664.698968, 63.962940) scale(-1, 1) rotate(-675.000000) translate(-664.698968, -63.962940) " points="664.698968 58.5716353 669.838582 62.296935 667.875424 68.3245965 661.522512 68.3245965 659.559354 62.296935"></polygon>
                <polygon id="Polygon-Copy-3" fill="#FC5B5D" transform="translate(670.458056, 35.330485) scale(-1, 1) rotate(-675.000000) translate(-670.458056, -35.330485) " points="670.458056 29.9391803 675.597669 33.66448 673.634512 39.6921415 667.2816 39.6921415 665.318442 33.66448"></polygon>
                <polygon id="Polygon-Copy-2" fill="#FC5B5D" transform="translate(743.387700, 22.633510) scale(-1, 1) rotate(-675.000000) translate(-743.387700, -22.633510) " points="743.3877 17.2422061 748.527314 20.9675057 746.564156 26.9951672 740.211244 26.9951672 738.248087 20.9675057"></polygon>
                <polygon id="Star" fill="#536DFE" transform="translate(528.997385, 78.997385) scale(-1, 1) rotate(-315.000000) translate(-528.997385, -78.997385) " points="528.997385 81.468399 526.085633 82.99557 526.641728 79.76097 524.286072 77.4702136 527.541509 76.9982918 528.997385 74.0553555 530.45326 76.9982918 533.708697 77.4702136 531.353041 79.76097 531.909136 82.99557"></polygon>
                <polygon id="Star-Copy-2" fill="#FCD540" transform="translate(398.997385, 20.997385) scale(-1, 1) rotate(-315.000000) translate(-398.997385, -20.997385) " points="398.997385 23.468399 396.085633 24.99557 396.641728 21.76097 394.286072 19.4702136 397.541509 18.9982918 398.997385 16.0553555 400.45326 18.9982918 403.708697 19.4702136 401.353041 21.76097 401.909136 24.99557"></polygon>
                <polygon id="Star-Copy" fill="#23D57E" transform="translate(727.997385, 80.997385) scale(-1, 1) rotate(-315.000000) translate(-727.997385, -80.997385) " points="727.997385 83.468399 725.085633 84.99557 725.641728 81.76097 723.286072 79.4702136 726.541509 78.9982918 727.997385 76.0553555 729.45326 78.9982918 732.708697 79.4702136 730.353041 81.76097 730.909136 84.99557"></polygon>
                <ellipse id="Oval" fill="#23D57E" transform="translate(602.725133, 35.725133) scale(-1, 1) rotate(-315.000000) translate(-602.725133, -35.725133) " cx="602.725133" cy="35.7251328" rx="4.05308219" ry="4.04347826"></ellipse>
                <ellipse id="Oval-Copy-2" fill="#6B82FF" transform="translate(476.725133, 82.725133) scale(-1, 1) rotate(-315.000000) translate(-476.725133, -82.725133) " cx="476.725133" cy="82.7251328" rx="4.05308219" ry="4.04347826"></ellipse>
                <ellipse id="Oval-Copy" fill="#23D57E" transform="translate(489.174615, 27.725133) scale(-1, 1) rotate(-315.000000) translate(-489.174615, -27.725133) " cx="489.174615" cy="27.7251328" rx="4.05308219" ry="4.04347826"></ellipse>
                <rect id="Rectangle" fill="#23D57E" transform="translate(552.725133, 5.725133) scale(-1, 1) rotate(-315.000000) translate(-552.725133, -5.725133) " x="549.032051" y="2.04165454" width="7.38616438" height="7.36695652" rx="0.9"></rect>
                <rect id="Rectangle-Copy-2" fill="#6B82FF" transform="translate(626.529152, 65.916591) scale(-1, 1) rotate(-315.000000) translate(-626.529152, -65.916591) " x="622.83607" y="62.2331123" width="7.38616438" height="7.36695652" rx="0.9"></rect>
                <path d="M539.906719,42.3673597 C539.608985,42.3677128 539.367713,42.6089854 539.36736,42.9067187 L539.360014,49.0993457 C539.360014,49.0999863 539.360014,49.0999863 539.360014,49.1006268 C539.360368,49.3988603 539.602421,49.6403396 539.900654,49.6399859 L546.093281,49.6326403 C546.391015,49.6322872 546.632287,49.3910146 546.63264,49.0932813 L546.639986,42.9006543 C546.639986,42.9000137 546.639986,42.9000137 546.639986,42.8993732 C546.639632,42.6011397 546.397579,42.3596604 546.099346,42.3600141 L539.906719,42.3673597 Z" id="Rectangle-Copy-4" fill="#FCD540" transform="translate(543.000000, 46.000000) scale(-1, 1) rotate(-630.000000) translate(-543.000000, -46.000000) "></path>
                <rect id="Rectangle-Copy" fill="#6B82FF" transform="translate(665.606730, 16.725133) scale(-1, 1) rotate(-315.000000) translate(-665.606730, -16.725133) " x="661.913648" y="13.0416545" width="7.38616438" height="7.36695652" rx="0.9"></rect>
            </g>
        </g>
    </g>
</svg>